/home/xinjie/Newton_Connection/Newton/phystwin_bridge/tools/core/newton_import_ir.py:1209: UserWarning: tabletop_table_box: PhysTwin ground collide_elas is present in IR, but native Newton SemiImplicit has no direct 1-to-1 restitution field for particle-vs-shape contacts. Ground bounce will therefore use native Newton ground ke/kd/kf defaults unless --ground-restitution-mode=approximate-native is selected.
  warnings.warn(message)
ffmpeg version 6.1.1-3ubuntu5+esm7 Copyright (c) 2000-2023 the FFmpeg developers
  built with gcc 13 (Ubuntu 13.3.0-6ubuntu2~24.04)
  configuration: --prefix=/usr --extra-version=3ubuntu5+esm7 --toolchain=hardened --libdir=/usr/lib/x86_64-linux-gnu --incdir=/usr/include/x86_64-linux-gnu --arch=amd64 --enable-gpl --disable-stripping --disable-omx --enable-gnutls --enable-libaom --enable-libass --enable-libbs2b --enable-libcaca --enable-libcdio --enable-libcodec2 --enable-libdav1d --enable-libflite --enable-libfontconfig --enable-libfreetype --enable-libfribidi --enable-libglslang --enable-libgme --enable-libgsm --enable-libharfbuzz --enable-libmp3lame --enable-libmysofa --enable-libopenjpeg --enable-libopenmpt --enable-libopus --enable-librubberband --enable-libshine --enable-libsnappy --enable-libsoxr --enable-libspeex --enable-libtheora --enable-libtwolame --enable-libvidstab --enable-libvorbis --enable-libvpx --enable-libwebp --enable-libx265 --enable-libxml2 --enable-libxvid --enable-libzimg --enable-openal --enable-opencl --enable-opengl --disable-sndio --enable-libvpl --disable-libmfx --enable-libdc1394 --enable-libdrm --enable-libiec61883 --enable-chromaprint --enable-frei0r --enable-ladspa --enable-libbluray --enable-libjack --enable-libpulse --enable-librabbitmq --enable-librist --enable-libsrt --enable-libssh --enable-libsvtav1 --enable-libx264 --enable-libzmq --enable-libzvbi --enable-lv2 --enable-sdl2 --enable-libplacebo --enable-librav1e --enable-pocketsphinx --enable-librsvg --enable-libjxl --enable-shared
  libavutil      58. 29.100 / 58. 29.100
  libavcodec     60. 31.102 / 60. 31.102
  libavformat    60. 16.100 / 60. 16.100
  libavdevice    60.  3.100 / 60.  3.100
  libavfilter     9. 12.100 /  9. 12.100
  libswscale      7.  5.100 /  7.  5.100
  libswresample   4. 12.100 /  4. 12.100
  libpostproc    57.  3.100 / 57.  3.100
Input #0, rawvideo, from 'fd:':
  Duration: N/A, start: 0.000000, bitrate: 663552 kb/s
  Stream #0:0: Video: rawvideo (RGB[24] / 0x18424752), rgb24, 1280x720, 663552 kb/s, 30 tbr, 30 tbn
Stream mapping:
  Stream #0:0 -> #0:0 (rawvideo (native) -> h264 (libx264))
[libx264 @ 0x642f02616480] using cpu capabilities: MMX2 SSE2Fast SSSE3 SSE4.2 AVX FMA3 BMI2 AVX2
[libx264 @ 0x642f02616480] profile High, level 3.1, 4:2:0, 8-bit
[libx264 @ 0x642f02616480] 264 - core 164 r3108 31e19f9 - H.264/MPEG-4 AVC codec - Copyleft 2003-2023 - http://www.videolan.org/x264.html - options: cabac=1 ref=3 deblock=1:0:0 analyse=0x3:0x113 me=hex subme=7 psy=1 psy_rd=1.00:0.00 mixed_ref=1 me_range=16 chroma_me=1 trellis=1 8x8dct=1 cqm=0 deadzone=21,11 fast_pskip=1 chroma_qp_offset=-2 threads=22 lookahead_threads=3 sliced_threads=0 nr=0 decimate=1 interlaced=0 bluray_compat=0 constrained_intra=0 bframes=3 b_pyramid=2 b_adapt=1 b_bias=0 direct=1 weightb=1 open_gop=0 weightp=2 keyint=250 keyint_min=25 scenecut=40 intra_refresh=0 rc_lookahead=40 rc=crf mbtree=1 crf=18.0 qcomp=0.60 qpmin=0 qpmax=69 qpstep=4 ip_ratio=1.40 aq=1:1.00
Output #0, mp4, to '/home/xinjie/Newton_Connection/Newton/phystwin_bridge/results/robot_rope_franka/candidates/20260402_140811_physradius0p1_c15/presentation/work/robot_rope_tabletop_hero.mp4':
  Metadata:
    encoder         : Lavf60.16.100
  Stream #0:0: Video: h264 (avc1 / 0x31637661), yuv420p(tv, progressive), 1280x720, q=2-31, 30 fps, 15360 tbn
    Metadata:
      encoder         : Lavc60.31.102 libx264
    Side data:
      cpb: bitrate max/min/avg: 0/0/0 buffer size: 0 vbv_delay: N/A
frame=    0 fps=0.0 q=0.0 size=       0kB time=N/A bitrate=N/A speed=N/A    frame=   63 fps=0.0 q=24.0 size=       0kB time=00:00:02.03 bitrate=   0.2kbits/s speed=4.06x    [out#0/mp4 @ 0x642f02614c80] video:707kB audio:0kB subtitle:0kB other streams:0kB global headers:0kB muxing overhead: 0.421312%
frame=  186 fps=0.0 q=-1.0 Lsize=     710kB time=00:00:06.10 bitrate= 954.0kbits/s speed=7.74x    
[libx264 @ 0x642f02616480] frame I:1     Avg QP: 8.77  size: 87156
[libx264 @ 0x642f02616480] frame P:49    Avg QP:16.79  size:  7351
[libx264 @ 0x642f02616480] frame B:136   Avg QP:22.54  size:  2032
[libx264 @ 0x642f02616480] consecutive B-frames:  0.5%  3.2%  8.1% 88.2%
[libx264 @ 0x642f02616480] mb I  I16..4: 50.4%  7.6% 42.0%
[libx264 @ 0x642f02616480] mb P  I16..4:  0.2%  0.4%  0.2%  P16..4:  3.8%  2.9%  2.3%  0.0%  0.0%    skip:90.2%
[libx264 @ 0x642f02616480] mb B  I16..4:  0.0%  0.0%  0.0%  B16..8:  3.5%  1.5%  0.7%  direct: 0.6%  skip:93.7%  L0:35.4% L1:39.9% BI:24.7%
[libx264 @ 0x642f02616480] 8x8 transform intra:21.8% inter:18.5%
[libx264 @ 0x642f02616480] coded y,uvDC,uvAC intra: 34.6% 42.5% 36.8% inter: 2.3% 0.6% 0.3%
[libx264 @ 0x642f02616480] i16 v,h,dc,p: 80% 11%  6%  4%
[libx264 @ 0x642f02616480] i8 v,h,dc,ddl,ddr,vr,hd,vl,hu:  7% 18% 45%  2% 11%  7%  4%  1%  5%
[libx264 @ 0x642f02616480] i4 v,h,dc,ddl,ddr,vr,hd,vl,hu: 20% 30% 18%  2%  7%  6%  8%  1%  8%
[libx264 @ 0x642f02616480] i8c dc,h,v,p: 66% 20% 11%  3%
[libx264 @ 0x642f02616480] Weighted P-Frames: Y:0.0% UV:0.0%
[libx264 @ 0x642f02616480] ref P L0: 64.8% 13.0% 17.0%  5.2%
[libx264 @ 0x642f02616480] ref B L0: 83.8% 13.9%  2.3%
[libx264 @ 0x642f02616480] ref B L1: 93.9%  6.1%
[libx264 @ 0x642f02616480] kb/s:933.82
/home/xinjie/Newton_Connection/Newton/phystwin_bridge/tools/core/newton_import_ir.py:1209: UserWarning: tabletop_table_box: PhysTwin ground collide_elas is present in IR, but native Newton SemiImplicit has no direct 1-to-1 restitution field for particle-vs-shape contacts. Ground bounce will therefore use native Newton ground ke/kd/kf defaults unless --ground-restitution-mode=approximate-native is selected.
  warnings.warn(message)
ffmpeg version 6.1.1-3ubuntu5+esm7 Copyright (c) 2000-2023 the FFmpeg developers
  built with gcc 13 (Ubuntu 13.3.0-6ubuntu2~24.04)
  configuration: --prefix=/usr --extra-version=3ubuntu5+esm7 --toolchain=hardened --libdir=/usr/lib/x86_64-linux-gnu --incdir=/usr/include/x86_64-linux-gnu --arch=amd64 --enable-gpl --disable-stripping --disable-omx --enable-gnutls --enable-libaom --enable-libass --enable-libbs2b --enable-libcaca --enable-libcdio --enable-libcodec2 --enable-libdav1d --enable-libflite --enable-libfontconfig --enable-libfreetype --enable-libfribidi --enable-libglslang --enable-libgme --enable-libgsm --enable-libharfbuzz --enable-libmp3lame --enable-libmysofa --enable-libopenjpeg --enable-libopenmpt --enable-libopus --enable-librubberband --enable-libshine --enable-libsnappy --enable-libsoxr --enable-libspeex --enable-libtheora --enable-libtwolame --enable-libvidstab --enable-libvorbis --enable-libvpx --enable-libwebp --enable-libx265 --enable-libxml2 --enable-libxvid --enable-libzimg --enable-openal --enable-opencl --enable-opengl --disable-sndio --enable-libvpl --disable-libmfx --enable-libdc1394 --enable-libdrm --enable-libiec61883 --enable-chromaprint --enable-frei0r --enable-ladspa --enable-libbluray --enable-libjack --enable-libpulse --enable-librabbitmq --enable-librist --enable-libsrt --enable-libssh --enable-libsvtav1 --enable-libx264 --enable-libzmq --enable-libzvbi --enable-lv2 --enable-sdl2 --enable-libplacebo --enable-librav1e --enable-pocketsphinx --enable-librsvg --enable-libjxl --enable-shared
  libavutil      58. 29.100 / 58. 29.100
  libavcodec     60. 31.102 / 60. 31.102
  libavformat    60. 16.100 / 60. 16.100
  libavdevice    60.  3.100 / 60.  3.100
  libavfilter     9. 12.100 /  9. 12.100
  libswscale      7.  5.100 /  7.  5.100
  libswresample   4. 12.100 /  4. 12.100
  libpostproc    57.  3.100 / 57.  3.100
Input #0, rawvideo, from 'fd:':
  Duration: N/A, start: 0.000000, bitrate: 663552 kb/s
  Stream #0:0: Video: rawvideo (RGB[24] / 0x18424752), rgb24, 1280x720, 663552 kb/s, 30 tbr, 30 tbn
Stream mapping:
  Stream #0:0 -> #0:0 (rawvideo (native) -> h264 (libx264))
[libx264 @ 0x617767127480] using cpu capabilities: MMX2 SSE2Fast SSSE3 SSE4.2 AVX FMA3 BMI2 AVX2
[libx264 @ 0x617767127480] profile High, level 3.1, 4:2:0, 8-bit
[libx264 @ 0x617767127480] 264 - core 164 r3108 31e19f9 - H.264/MPEG-4 AVC codec - Copyleft 2003-2023 - http://www.videolan.org/x264.html - options: cabac=1 ref=3 deblock=1:0:0 analyse=0x3:0x113 me=hex subme=7 psy=1 psy_rd=1.00:0.00 mixed_ref=1 me_range=16 chroma_me=1 trellis=1 8x8dct=1 cqm=0 deadzone=21,11 fast_pskip=1 chroma_qp_offset=-2 threads=22 lookahead_threads=3 sliced_threads=0 nr=0 decimate=1 interlaced=0 bluray_compat=0 constrained_intra=0 bframes=3 b_pyramid=2 b_adapt=1 b_bias=0 direct=1 weightb=1 open_gop=0 weightp=2 keyint=250 keyint_min=25 scenecut=40 intra_refresh=0 rc_lookahead=40 rc=crf mbtree=1 crf=18.0 qcomp=0.60 qpmin=0 qpmax=69 qpstep=4 ip_ratio=1.40 aq=1:1.00
Output #0, mp4, to '/home/xinjie/Newton_Connection/Newton/phystwin_bridge/results/robot_rope_franka/candidates/20260402_140811_physradius0p1_c15/debug/work/robot_rope_tabletop_hero_debug.mp4':
  Metadata:
    encoder         : Lavf60.16.100
  Stream #0:0: Video: h264 (avc1 / 0x31637661), yuv420p(tv, progressive), 1280x720, q=2-31, 30 fps, 15360 tbn
    Metadata:
      encoder         : Lavc60.31.102 libx264
    Side data:
      cpb: bitrate max/min/avg: 0/0/0 buffer size: 0 vbv_delay: N/A
frame=    0 fps=0.0 q=0.0 size=       0kB time=N/A bitrate=N/A speed=N/A    frame=    0 fps=0.0 q=0.0 size=       0kB time=N/A bitrate=N/A speed=N/A    frame=    0 fps=0.0 q=0.0 size=       0kB time=N/A bitrate=N/A speed=N/A    frame=    0 fps=0.0 q=0.0 size=       0kB time=N/A bitrate=N/A speed=N/A    frame=    0 fps=0.0 q=0.0 size=       0kB time=N/A bitrate=N/A speed=N/A    frame=    0 fps=0.0 q=0.0 size=       0kB time=N/A bitrate=N/A speed=N/A    frame=    0 fps=0.0 q=0.0 size=       0kB time=N/A bitrate=N/A speed=N/A    frame=    0 fps=0.0 q=0.0 size=       0kB time=N/A bitrate=N/A speed=N/A    frame=    0 fps=0.0 q=0.0 size=       0kB time=N/A bitrate=N/A speed=N/A    frame=    0 fps=0.0 q=0.0 size=       0kB time=N/A bitrate=N/A speed=N/A    frame=    1 fps=0.2 q=24.0 size=       0kB time=-00:00:00.03 bitrate=N/A speed=N/A    frame=    7 fps=1.2 q=24.0 size=       0kB time=00:00:00.16 bitrate=   2.3kbits/s speed=0.0279x    frame=   13 fps=2.0 q=24.0 size=       0kB time=00:00:00.36 bitrate=   1.0kbits/s speed=0.0565x    frame=   20 fps=2.8 q=24.0 size=       0kB time=00:00:00.60 bitrate=   0.6kbits/s speed=0.0852x    frame=   26 fps=3.4 q=24.0 size=       0kB time=00:00:00.80 bitrate=   0.5kbits/s speed=0.106x    frame=   32 fps=4.0 q=24.0 size=       0kB time=00:00:01.00 bitrate=   0.4kbits/s speed=0.124x    frame=   38 fps=4.4 q=24.0 size=       0kB time=00:00:01.20 bitrate=   0.3kbits/s speed=0.14x    frame=   45 fps=4.9 q=24.0 size=       0kB time=00:00:01.43 bitrate=   0.3kbits/s speed=0.157x    frame=   52 fps=5.4 q=24.0 size=       0kB time=00:00:01.66 bitrate=   0.2kbits/s speed=0.172x    frame=   59 fps=5.7 q=24.0 size=       0kB time=00:00:01.90 bitrate=   0.2kbits/s speed=0.185x    frame=   66 fps=6.1 q=24.0 size=       0kB time=00:00:02.13 bitrate=   0.2kbits/s speed=0.197x    frame=   73 fps=6.4 q=24.0 size=       0kB time=00:00:02.36 bitrate=   0.2kbits/s speed=0.207x    frame=   80 fps=6.7 q=24.0 size=     256kB time=00:00:02.60 bitrate= 806.7kbits/s speed=0.217x    frame=   87 fps=6.9 q=24.0 size=     256kB time=00:00:02.83 bitrate= 740.3kbits/s speed=0.226x    frame=   93 fps=7.1 q=24.0 size=     256kB time=00:00:03.03 bitrate= 691.5kbits/s speed=0.233x    frame=  100 fps=7.4 q=24.0 size=     256kB time=00:00:03.26 bitrate= 642.1kbits/s speed=0.241x    frame=  107 fps=7.6 q=24.0 size=     256kB time=00:00:03.50 bitrate= 599.3kbits/s speed=0.247x    frame=  114 fps=7.7 q=24.0 size=     256kB time=00:00:03.73 bitrate= 561.8kbits/s speed=0.254x    [out#0/mp4 @ 0x617767125c80] video:685kB audio:0kB subtitle:0kB other streams:0kB global headers:0kB muxing overhead: 0.433739%
frame=  186 fps= 12 q=-1.0 Lsize=     688kB time=00:00:06.10 bitrate= 924.4kbits/s speed=0.401x    
[libx264 @ 0x617767127480] frame I:1     Avg QP: 9.58  size: 50953
[libx264 @ 0x617767127480] frame P:49    Avg QP:17.73  size:  8106
[libx264 @ 0x617767127480] frame B:136   Avg QP:24.73  size:  1860
[libx264 @ 0x617767127480] consecutive B-frames:  1.1%  1.1%  9.7% 88.2%
[libx264 @ 0x617767127480] mb I  I16..4: 55.9% 21.8% 22.3%
[libx264 @ 0x617767127480] mb P  I16..4:  0.2%  0.2%  0.3%  P16..4:  3.9%  2.7%  2.5%  0.0%  0.0%    skip:90.2%
[libx264 @ 0x617767127480] mb B  I16..4:  0.0%  0.0%  0.0%  B16..8:  3.2%  1.3%  0.6%  direct: 0.6%  skip:94.2%  L0:36.1% L1:41.1% BI:22.8%
[libx264 @ 0x617767127480] 8x8 transform intra:26.1% inter:20.3%
[libx264 @ 0x617767127480] coded y,uvDC,uvAC intra: 24.9% 23.2% 14.0% inter: 2.2% 0.7% 0.3%
[libx264 @ 0x617767127480] i16 v,h,dc,p: 82% 12%  4%  2%
[libx264 @ 0x617767127480] i8 v,h,dc,ddl,ddr,vr,hd,vl,hu: 31% 13% 47%  1%  2%  1%  2%  1%  2%
[libx264 @ 0x617767127480] i4 v,h,dc,ddl,ddr,vr,hd,vl,hu: 26% 27% 15%  3%  6%  7%  5%  4%  6%
[libx264 @ 0x617767127480] i8c dc,h,v,p: 70% 19%  9%  1%
[libx264 @ 0x617767127480] Weighted P-Frames: Y:0.0% UV:0.0%
[libx264 @ 0x617767127480] ref P L0: 67.2% 15.6% 13.1%  4.1%
[libx264 @ 0x617767127480] ref B L0: 84.7% 13.3%  2.1%
[libx264 @ 0x617767127480] ref B L1: 95.7%  4.3%
[libx264 @ 0x617767127480] kb/s:904.66
/home/xinjie/Newton_Connection/Newton/phystwin_bridge/tools/core/newton_import_ir.py:1209: UserWarning: tabletop_table_box: PhysTwin ground collide_elas is present in IR, but native Newton SemiImplicit has no direct 1-to-1 restitution field for particle-vs-shape contacts. Ground bounce will therefore use native Newton ground ke/kd/kf defaults unless --ground-restitution-mode=approximate-native is selected.
  warnings.warn(message)
ffmpeg version 6.1.1-3ubuntu5+esm7 Copyright (c) 2000-2023 the FFmpeg developers
  built with gcc 13 (Ubuntu 13.3.0-6ubuntu2~24.04)
  configuration: --prefix=/usr --extra-version=3ubuntu5+esm7 --toolchain=hardened --libdir=/usr/lib/x86_64-linux-gnu --incdir=/usr/include/x86_64-linux-gnu --arch=amd64 --enable-gpl --disable-stripping --disable-omx --enable-gnutls --enable-libaom --enable-libass --enable-libbs2b --enable-libcaca --enable-libcdio --enable-libcodec2 --enable-libdav1d --enable-libflite --enable-libfontconfig --enable-libfreetype --enable-libfribidi --enable-libglslang --enable-libgme --enable-libgsm --enable-libharfbuzz --enable-libmp3lame --enable-libmysofa --enable-libopenjpeg --enable-libopenmpt --enable-libopus --enable-librubberband --enable-libshine --enable-libsnappy --enable-libsoxr --enable-libspeex --enable-libtheora --enable-libtwolame --enable-libvidstab --enable-libvorbis --enable-libvpx --enable-libwebp --enable-libx265 --enable-libxml2 --enable-libxvid --enable-libzimg --enable-openal --enable-opencl --enable-opengl --disable-sndio --enable-libvpl --disable-libmfx --enable-libdc1394 --enable-libdrm --enable-libiec61883 --enable-chromaprint --enable-frei0r --enable-ladspa --enable-libbluray --enable-libjack --enable-libpulse --enable-librabbitmq --enable-librist --enable-libsrt --enable-libssh --enable-libsvtav1 --enable-libx264 --enable-libzmq --enable-libzvbi --enable-lv2 --enable-sdl2 --enable-libplacebo --enable-librav1e --enable-pocketsphinx --enable-librsvg --enable-libjxl --enable-shared
  libavutil      58. 29.100 / 58. 29.100
  libavcodec     60. 31.102 / 60. 31.102
  libavformat    60. 16.100 / 60. 16.100
  libavdevice    60.  3.100 / 60.  3.100
  libavfilter     9. 12.100 /  9. 12.100
  libswscale      7.  5.100 /  7.  5.100
  libswresample   4. 12.100 /  4. 12.100
  libpostproc    57.  3.100 / 57.  3.100
Input #0, rawvideo, from 'fd:':
  Duration: N/A, start: 0.000000, bitrate: 663552 kb/s
  Stream #0:0: Video: rawvideo (RGB[24] / 0x18424752), rgb24, 1280x720, 663552 kb/s, 30 tbr, 30 tbn
Stream mapping:
  Stream #0:0 -> #0:0 (rawvideo (native) -> h264 (libx264))
[libx264 @ 0x5d348ff9b480] using cpu capabilities: MMX2 SSE2Fast SSSE3 SSE4.2 AVX FMA3 BMI2 AVX2
[libx264 @ 0x5d348ff9b480] profile High, level 3.1, 4:2:0, 8-bit
[libx264 @ 0x5d348ff9b480] 264 - core 164 r3108 31e19f9 - H.264/MPEG-4 AVC codec - Copyleft 2003-2023 - http://www.videolan.org/x264.html - options: cabac=1 ref=3 deblock=1:0:0 analyse=0x3:0x113 me=hex subme=7 psy=1 psy_rd=1.00:0.00 mixed_ref=1 me_range=16 chroma_me=1 trellis=1 8x8dct=1 cqm=0 deadzone=21,11 fast_pskip=1 chroma_qp_offset=-2 threads=22 lookahead_threads=3 sliced_threads=0 nr=0 decimate=1 interlaced=0 bluray_compat=0 constrained_intra=0 bframes=3 b_pyramid=2 b_adapt=1 b_bias=0 direct=1 weightb=1 open_gop=0 weightp=2 keyint=250 keyint_min=25 scenecut=40 intra_refresh=0 rc_lookahead=40 rc=crf mbtree=1 crf=18.0 qcomp=0.60 qpmin=0 qpmax=69 qpstep=4 ip_ratio=1.40 aq=1:1.00
Output #0, mp4, to '/home/xinjie/Newton_Connection/Newton/phystwin_bridge/results/robot_rope_franka/candidates/20260402_140811_physradius0p1_c15/validation/work/robot_rope_tabletop_hero_validation.mp4':
  Metadata:
    encoder         : Lavf60.16.100
  Stream #0:0: Video: h264 (avc1 / 0x31637661), yuv420p(tv, progressive), 1280x720, q=2-31, 30 fps, 15360 tbn
    Metadata:
      encoder         : Lavc60.31.102 libx264
    Side data:
      cpb: bitrate max/min/avg: 0/0/0 buffer size: 0 vbv_delay: N/A
frame=    0 fps=0.0 q=0.0 size=       0kB time=N/A bitrate=N/A speed=N/A    frame=   38 fps=0.0 q=24.0 size=       0kB time=00:00:01.20 bitrate=   0.3kbits/s speed= 2.4x    [out#0/mp4 @ 0x5d348ff99c80] video:635kB audio:0kB subtitle:0kB other streams:0kB global headers:0kB muxing overhead: 0.474086%
frame=  186 fps=0.0 q=-1.0 Lsize=     638kB time=00:00:06.10 bitrate= 857.2kbits/s speed=6.77x    
[libx264 @ 0x5d348ff9b480] frame I:1     Avg QP: 9.26  size: 83002
[libx264 @ 0x5d348ff9b480] frame P:47    Avg QP:16.56  size:  6431
[libx264 @ 0x5d348ff9b480] frame B:138   Avg QP:23.19  size:  1917
[libx264 @ 0x5d348ff9b480] consecutive B-frames:  0.5%  1.1%  1.6% 96.8%
[libx264 @ 0x5d348ff9b480] mb I  I16..4: 44.2% 14.2% 41.6%
[libx264 @ 0x5d348ff9b480] mb P  I16..4:  0.1%  0.3%  0.2%  P16..4:  3.7%  2.3%  1.8%  0.0%  0.0%    skip:91.7%
[libx264 @ 0x5d348ff9b480] mb B  I16..4:  0.0%  0.1%  0.0%  B16..8:  2.9%  1.1%  0.5%  direct: 0.6%  skip:94.7%  L0:35.8% L1:38.1% BI:26.1%
[libx264 @ 0x5d348ff9b480] 8x8 transform intra:28.8% inter:18.0%
[libx264 @ 0x5d348ff9b480] coded y,uvDC,uvAC intra: 30.3% 40.8% 36.8% inter: 1.9% 0.5% 0.2%
[libx264 @ 0x5d348ff9b480] i16 v,h,dc,p: 83%  8%  7%  2%
[libx264 @ 0x5d348ff9b480] i8 v,h,dc,ddl,ddr,vr,hd,vl,hu: 18% 10% 58%  1%  4%  5%  2%  1%  2%
[libx264 @ 0x5d348ff9b480] i4 v,h,dc,ddl,ddr,vr,hd,vl,hu: 25% 31% 15%  1%  6%  6%  7%  1%  7%
[libx264 @ 0x5d348ff9b480] i8c dc,h,v,p: 66% 19% 13%  2%
[libx264 @ 0x5d348ff9b480] Weighted P-Frames: Y:0.0% UV:0.0%
[libx264 @ 0x5d348ff9b480] ref P L0: 64.7% 12.6% 17.4%  5.4%
[libx264 @ 0x5d348ff9b480] ref B L0: 85.3% 12.2%  2.5%
[libx264 @ 0x5d348ff9b480] ref B L1: 94.7%  5.3%
[libx264 @ 0x5d348ff9b480] kb/s:838.48
